REM DIRINDEX 1\3,1\2\4,1\2\5,1\2\6
REM DIRNAME cjc137,folder01,folder02,folder03,folder04,folder05
TITLE ""
FILE "040.mp3" MP3
  TRACK 01 AUDIO
    TITLE "4:cjc137_1636"
    INDEX 01 00:00:00
  TRACK 02 AUDIO
    TITLE "0:"
    INDEX 01 00:01:22
  TRACK 03 AUDIO
    TITLE "6:cjc137_1637"
    INDEX 01 00:01:28
  TRACK 04 AUDIO
    TITLE "0:"
    INDEX 01 00:02:53
  TRACK 05 AUDIO
    TITLE "5:cjc137_1638"
    INDEX 01 00:02:59
  TRACK 06 AUDIO
    TITLE "0:"
    INDEX 01 00:04:05
  TRACK 07 AUDIO
    TITLE "4:cjc137_1639"
    INDEX 01 00:05:12
  TRACK 08 AUDIO
    TITLE "0:"
    INDEX 01 00:06:16
  TRACK 09 AUDIO
    TITLE "6:cjc137_1640"
    INDEX 01 00:06:26
  TRACK 10 AUDIO
    TITLE "0:"
    INDEX 01 00:07:31
  TRACK 11 AUDIO
    TITLE "5:cjc137_1641"
    INDEX 01 00:07:39
  TRACK 12 AUDIO
    TITLE "0:"
    INDEX 01 00:08:44
  TRACK 13 AUDIO
    TITLE "4:cjc137_1642"
    INDEX 01 00:09:51
  TRACK 14 AUDIO
    TITLE "0:"
    INDEX 01 00:10:55
  TRACK 15 AUDIO
    TITLE "6:cjc137_1643"
    INDEX 01 00:10:63
  TRACK 16 AUDIO
    TITLE "0:"
    INDEX 01 00:12:03
  TRACK 17 AUDIO
    TITLE "5:cjc137_1644"
    INDEX 01 00:12:09
  TRACK 18 AUDIO
    TITLE "0:"
    INDEX 01 00:13:14
  TRACK 19 AUDIO
    TITLE "4:cjc137_1645"
    INDEX 01 00:14:21
  TRACK 20 AUDIO
    TITLE "0:"
    INDEX 01 00:15:27
  TRACK 21 AUDIO
    TITLE "6:cjc137_1646"
    INDEX 01 00:15:32
  TRACK 22 AUDIO
    TITLE "0:"
    INDEX 01 00:16:44
  TRACK 23 AUDIO
    TITLE "5:cjc137_1647"
    INDEX 01 00:16:51
  TRACK 24 AUDIO
    TITLE "0:"
    INDEX 01 00:17:55
  TRACK 25 AUDIO
    TITLE "4:cjc137_1648"
    INDEX 01 00:18:64
  TRACK 26 AUDIO
    TITLE "0:"
    INDEX 01 00:19:69
  TRACK 27 AUDIO
    TITLE "6:cjc137_1649"
    INDEX 01 00:20:02
  TRACK 28 AUDIO
    TITLE "0:"
    INDEX 01 00:21:06
  TRACK 29 AUDIO
    TITLE "5:cjc137_1650"
    INDEX 01 00:21:13
  TRACK 30 AUDIO
    TITLE "0:"
    INDEX 01 00:22:15
  TRACK 31 AUDIO
    TITLE "4:cjc137_1651"
    INDEX 01 00:23:26
  TRACK 32 AUDIO
    TITLE "0:"
    INDEX 01 00:24:43
  TRACK 33 AUDIO
    TITLE "6:cjc137_1652"
    INDEX 01 00:24:53
  TRACK 34 AUDIO
    TITLE "0:"
    INDEX 01 00:26:30
  TRACK 35 AUDIO
    TITLE "5:cjc137_1653"
    INDEX 01 00:26:36
  TRACK 36 AUDIO
    TITLE "0:"
    INDEX 01 00:27:53
  TRACK 37 AUDIO
    TITLE "4:cjc137_1654"
    INDEX 01 00:28:62
  TRACK 38 AUDIO
    TITLE "0:"
    INDEX 01 00:29:58
  TRACK 39 AUDIO
    TITLE "6:cjc137_1655"
    INDEX 01 00:29:66
  TRACK 40 AUDIO
    TITLE "0:"
    INDEX 01 00:30:55
  TRACK 41 AUDIO
    TITLE "5:cjc137_1656"
    INDEX 01 00:30:61
  TRACK 42 AUDIO
    TITLE "0:"
    INDEX 01 00:31:57
  TRACK 43 AUDIO
    TITLE "4:cjc137_1657"
    INDEX 01 00:32:64
  TRACK 44 AUDIO
    TITLE "0:"
    INDEX 01 00:34:06
  TRACK 45 AUDIO
    TITLE "6:cjc137_1658"
    INDEX 01 00:34:12
  TRACK 46 AUDIO
    TITLE "0:"
    INDEX 01 00:35:25
  TRACK 47 AUDIO
    TITLE "5:cjc137_1659"
    INDEX 01 00:35:31
  TRACK 48 AUDIO
    TITLE "0:"
    INDEX 01 00:36:48
  TRACK 49 AUDIO
    TITLE "4:cjc137_1660"
    INDEX 01 00:37:56
  TRACK 50 AUDIO
    TITLE "0:"
    INDEX 01 00:38:61
  TRACK 51 AUDIO
    TITLE "6:cjc137_1661"
    INDEX 01 00:38:71
  TRACK 52 AUDIO
    TITLE "0:"
    INDEX 01 00:40:54
  TRACK 53 AUDIO
    TITLE "5:cjc137_1662"
    INDEX 01 00:40:60
  TRACK 54 AUDIO
    TITLE "0:"
    INDEX 01 00:41:65
  TRACK 55 AUDIO
    TITLE "4:cjc137_1663"
    INDEX 01 00:42:74
  TRACK 56 AUDIO
    TITLE "0:"
    INDEX 01 00:44:09
  TRACK 57 AUDIO
    TITLE "6:cjc137_1664"
    INDEX 01 00:44:16
  TRACK 58 AUDIO
    TITLE "0:"
    INDEX 01 00:45:18
  TRACK 59 AUDIO
    TITLE "5:cjc137_1665"
    INDEX 01 00:45:22
  TRACK 60 AUDIO
    TITLE "0:"
    INDEX 01 00:46:35
  TRACK 61 AUDIO
    TITLE "4:cjc137_1666"
    INDEX 01 00:47:42
  TRACK 62 AUDIO
    TITLE "0:"
    INDEX 01 00:48:49
  TRACK 63 AUDIO
    TITLE "6:cjc137_1667"
    INDEX 01 00:48:53
  TRACK 64 AUDIO
    TITLE "0:"
    INDEX 01 00:49:55
  TRACK 65 AUDIO
    TITLE "5:cjc137_1668"
    INDEX 01 00:49:65
  TRACK 66 AUDIO
    TITLE "0:"
    INDEX 01 00:50:72
  TRACK 67 AUDIO
    TITLE "4:cjc137_1669"
    INDEX 01 00:52:02
  TRACK 68 AUDIO
    TITLE "0:"
    INDEX 01 00:53:25
  TRACK 69 AUDIO
    TITLE "6:cjc137_1670"
    INDEX 01 00:53:29
  TRACK 70 AUDIO
    TITLE "0:"
    INDEX 01 00:54:50
  TRACK 71 AUDIO
    TITLE "5:cjc137_1671"
    INDEX 01 00:54:56
  TRACK 72 AUDIO
    TITLE "0:"
    INDEX 01 00:56:04
  TRACK 73 AUDIO
    TITLE "4:cjc137_1672"
    INDEX 01 00:57:11
  TRACK 74 AUDIO
    TITLE "0:"
    INDEX 01 00:58:36
  TRACK 75 AUDIO
    TITLE "6:cjc137_1673"
    INDEX 01 00:58:40
  TRACK 76 AUDIO
    TITLE "0:"
    INDEX 01 00:59:41
  TRACK 77 AUDIO
    TITLE "5:cjc137_1674"
    INDEX 01 00:59:47
  TRACK 78 AUDIO
    TITLE "0:"
    INDEX 01 01:00:72
  TRACK 79 AUDIO
    TITLE "4:cjc137_1675"
    INDEX 01 01:02:03
  TRACK 80 AUDIO
    TITLE "0:"
    INDEX 01 01:03:22
  TRACK 81 AUDIO
    TITLE "6:cjc137_1676"
    INDEX 01 01:03:31
  TRACK 82 AUDIO
    TITLE "0:"
    INDEX 01 01:04:60
  TRACK 83 AUDIO
    TITLE "5:cjc137_1677"
    INDEX 01 01:04:70
  TRACK 84 AUDIO
    TITLE "0:"
    INDEX 01 01:06:16
